<?xml version="1.0" encoding="UTF-8" standalone="no"?>
<!-- Created with Inkscape (http://www.inkscape.org/) -->

<svg
   width="20"
   height="20"
   viewBox="0 0 5.2916664 5.2916664"
   version="1.1"
   id="svg1"
   xml:space="preserve"
   inkscape:version="1.4 (86a8ad7, 2024-10-11)"
   sodipodi:docname="editar.svg"
   xmlns:inkscape="http://www.inkscape.org/namespaces/inkscape"
   xmlns:sodipodi="http://sodipodi.sourceforge.net/DTD/sodipodi-0.dtd"
   xmlns="http://www.w3.org/2000/svg"
   xmlns:svg="http://www.w3.org/2000/svg"><sodipodi:namedview
     id="namedview1"
     pagecolor="#ffffff"
     bordercolor="#000000"
     borderopacity="0.25"
     inkscape:showpageshadow="2"
     inkscape:pageopacity="0.0"
     inkscape:pagecheckerboard="0"
     inkscape:deskcolor="#d1d1d1"
     inkscape:document-units="mm"
     inkscape:zoom="11.502694"
     inkscape:cx="35.122208"
     inkscape:cy="31.427422"
     inkscape:window-width="1920"
     inkscape:window-height="1009"
     inkscape:window-x="-8"
     inkscape:window-y="-8"
     inkscape:window-maximized="1"
     inkscape:current-layer="layer1" /><defs
     id="defs1" /><g
     inkscape:label="Capa 1"
     inkscape:groupmode="layer"
     id="layer1"><path
       style="fill:#1f7f84;stroke-width:0.0370204;fill-opacity:1"
       d="M 0.64327436,5.1542151 C 0.60825913,5.1465866 0.55095786,5.1263457 0.51593998,5.10923 0.42959145,5.0670274 0.31468787,4.9520964 0.27260032,4.8658354 0.20868845,4.7348374 0.2117066,4.8338297 0.21458264,2.963015 l 0.002735,-1.6968273 0.0252607,-0.064839 c 0.0138871,-0.03566 0.0377536,-0.086351 0.0530276,-0.1126427 0.0397091,-0.068343 0.13899968,-0.16082943 0.2118813,-0.19735907 0.12851541,-0.0644122 0.0457264,-0.0610359 1.49693686,-0.0610359 H 3.3221516 L 3.1118558,1.0407793 2.9015574,1.2512472 l -1.0941537,0.00246 -1.09415651,0.00246 -0.0302446,0.028979 c -0.0166218,0.015938 -0.0347557,0.044589 -0.0402695,0.063666 -0.006725,0.02321 -0.009076,0.5754856 -0.007135,1.6708805 0.002733,1.5438829 0.003881,1.6376783 0.0201761,1.6625594 0.009514,0.014488 0.0291428,0.034139 0.0436431,0.043646 0.024878,0.016323 0.11870907,0.017414 1.67068651,0.019847 1.5899941,0.00247 1.6456905,0.00189 1.6858699,-0.01583 0.079918,-0.035353 0.074426,0.05091 0.074426,-1.168602 V 2.4803681 L 4.3411321,2.269862 4.5518656,2.0593558 l -0.00247,1.3419085 -0.00247,1.3419091 -0.025341,0.065101 C 4.4594824,4.9677613 4.3457951,5.0762597 4.1703066,5.1435258 L 4.1159635,5.16436 2.4116397,5.1659792 C 0.97339039,5.1673671 0.69737853,5.1654009 0.64365022,5.1538697 Z M 1.2592073,4.1225706 c -0.028798,-0.028799 -0.038118,-0.046033 -0.0384,-0.071015 -2.734e-4,-0.029759 0.1362713,-0.7222245 0.1445822,-0.7328893 0.00391,-0.005 0.6981561,0.6867966 0.6981561,0.6957036 0,0.00823 -0.6940416,0.1469386 -0.733327,0.1465508 -0.025015,-2.572e-4 -0.042175,-0.00951 -0.071012,-0.038349 z M 1.843135,3.5336974 1.4905946,3.1810557 2.766355,1.9052953 4.0421152,0.62953765 4.3971708,0.98459325 4.7522294,1.3396516 3.4789156,2.6129952 C 2.7785917,3.3133356 2.2033657,3.8863388 2.2006374,3.8863388 c -0.00273,0 -0.1636043,-0.1586889 -0.3575024,-0.3526414 z M 4.523997,0.85733816 4.1683998,0.50101954 4.2872428,0.38561294 C 4.4348538,0.24227188 4.4798505,0.21789692 4.5955414,0.2186077 4.7180916,0.21942618 4.7427811,0.23457336 4.9410723,0.43162084 5.1437844,0.6330561 5.1633339,0.66421647 5.1635252,0.78618981 5.1637114,0.90060128 5.1401234,0.94378509 4.9960854,1.0929985 L 4.8795961,1.2136568 Z"
       id="path1"
       sodipodi:nodetypes="cssscsssscccccsssssssscccccsscsccscsscsscccccsssccssscscc" /></g></svg>
