<?xml version="1.0" encoding="utf-8"?>
<!-- Generator: Adobe Illustrator 16.0.0, SVG Export Plug-In . SVG Version: 6.00 Build 0)  -->
<!DOCTYPE svg PUBLIC "-//W3C//DTD SVG 1.1//EN" "http://www.w3.org/Graphics/SVG/1.1/DTD/svg11.dtd">
<svg version="1.1" id="Capa_1" xmlns="http://www.w3.org/2000/svg" xmlns:xlink="http://www.w3.org/1999/xlink" x="0px" y="0px"
	 width="1489px" height="396.441px" viewBox="0 0 1489 396.441" enable-background="new 0 0 1489 396.441" xml:space="preserve">
<rect id="rect6080_15_" x="10.02" y="241.533" fill="#00A5D2" width="1358.804" height="6.515"/>
<g enable-background="new    ">
	<path fill="#00A5D2" d="M46.528,169.463H9.885L47.126,12.417h72.369c12.865,0,23.045,1.345,30.511,4.006
		c7.489,2.7,13.409,7.11,17.805,13.298c4.371,6.177,6.542,13.547,6.542,22.11c0,7.941-1.737,15.664-5.211,23.142
		c-3.474,7.492-7.762,13.49-12.812,17.983c-5.076,4.533-10.479,7.899-16.315,10.234c-5.833,2.32-13.678,4.084-23.56,5.307
		c-5.729,0.717-16.504,1.085-32.275,1.085H60.727L46.528,169.463z M66.805,83.536h11.292c19.356,0,32.248-1.07,38.736-3.202
		c6.461-2.159,11.564-5.579,15.284-10.288c3.716-4.709,5.591-9.881,5.591-15.542c0-3.785-0.951-6.879-2.853-9.322
		c-1.925-2.404-4.56-4.194-8.034-5.28c-3.42-1.112-11.101-1.668-22.992-1.668H77.61L66.805,83.536z"/>
	<path fill="#00A5D2" d="M224.733,87.922l-33.985-2.565c3.881-10.138,10.668-18.052,20.331-23.766
		c9.663-5.729,22.478-8.578,38.438-8.578c16.558,0,28.828,2.972,36.754,8.823c7.953,5.902,11.891,13.096,11.891,21.62
		c0,3.42-0.326,7.044-1.005,10.886c-0.706,3.869-3.095,14.007-7.247,30.442c-3.367,13.559-5.104,23.061-5.104,28.487
		c0,4.847,1.004,10.234,2.903,16.193h-33.821c-1.411-4.168-2.228-8.443-2.554-12.88c-5.13,4.993-10.964,8.835-17.616,11.523
		c-6.622,2.673-13.302,4.003-20.031,4.003c-10.668,0-19.518-3.08-26.466-9.256c-6.948-6.174-10.422-14.115-10.422-23.832
		c0-10.859,3.8-19.533,11.481-26.018c7.627-6.503,21.282-10.425,40.934-11.795c16.612-1.208,27.689-2.661,33.28-4.383
		c1.465-4.291,2.197-7.711,2.197-10.276c0-3.271-1.519-6.051-4.505-8.251c-3.014-2.198-7.465-3.325-13.355-3.325
		c-6.243,0-11.155,1.127-14.74,3.366C228.48,80.606,226.037,83.796,224.733,87.922z M257.876,116.424
		c-2.09,0.502-4.886,0.963-8.359,1.396c-17.509,1.848-28.909,4.559-34.258,8.129c-3.8,2.58-5.698,6.039-5.698,10.398
		c0,3.567,1.465,6.581,4.371,9.05c2.93,2.458,6.757,3.68,11.535,3.68c5.238,0,10.207-1.115,14.875-3.354
		c4.643-2.251,8.117-5.13,10.452-8.686c2.278-3.543,4.314-9.053,6.108-16.545L257.876,116.424z"/>
	<path fill="#00A5D2" d="M324.627,55.686h34.718l8.739,56.651c2.17,14.59,3.394,24.783,3.639,30.661
		c4.56-11.646,10.775-23.928,18.701-36.85l30.837-50.462h36.916l-79.67,124.906c-6.512,10.342-11.699,17.604-15.442,21.73
		c-3.773,4.153-8.309,7.396-13.601,9.744c-5.292,2.35-11.699,3.543-19.11,3.543c-7.355,0-15.661-1.154-24.891-3.432l3.041-22.911
		c4.206,1.073,8.278,1.603,12.24,1.603c10.697,0,19.464-7.155,26.358-21.404L324.627,55.686z"/>
	<path fill="#00A5D2" d="M547.022,55.686h33.008l-2.795,11.687c7.029-5.145,13.625-8.808,19.786-11.047
		c6.136-2.212,12.731-3.313,19.79-3.313c13.517,0,24.376,4.114,32.574,12.324c8.225,8.198,12.351,20.453,12.351,36.727
		c0,20.492-7.086,37.812-21.254,51.954c-12.136,12.079-26.493,18.091-43.081,18.091c-17.072,0-29.994-6.093-38.733-18.295
		l-13.954,58.999h-34.825L547.022,55.686z M568.031,120.93c0,8.835,2.416,15.729,7.328,20.603
		c4.889,4.886,10.668,7.343,17.293,7.343c5.752,0,11.29-1.833,16.638-5.525c5.349-3.666,9.771-9.759,13.275-18.31
		c3.528-8.536,5.292-16.435,5.292-23.724c0-8.497-2.308-15.012-6.921-19.544c-4.613-4.518-10.479-6.799-17.589-6.799
		c-6.652,0-12.704,2.104-18.16,6.257c-5.457,4.18-9.69,10.327-12.677,18.43C569.523,107.75,568.031,114.848,568.031,120.93z"/>
	<path fill="#00A5D2" d="M798.518,122.11h-87.381c-0.081,1.208-0.135,2.144-0.135,2.769c0,7.573,2.47,13.667,7.355,18.337
		c4.888,4.628,10.859,6.96,17.888,6.96c11.564,0,20.603-5.28,27.091-15.853l31.19,4.59c-6.082,11.074-14.196,19.365-24.349,24.902
		c-10.15,5.525-21.524,8.294-34.174,8.294c-17.293,0-31.381-4.832-42.237-14.495c-10.832-9.678-16.259-22.504-16.259-38.41
		c0-15.568,4.886-29.411,14.683-41.559c13.356-16.423,32.413-24.633,57.196-24.633c15.771,0,28.311,4.302,37.621,12.907
		c9.31,8.604,13.954,20.657,13.954,36.144C800.96,109.514,800.171,116.179,798.518,122.11z M769.172,103.34
		c0.054-1.345,0.084-2.362,0.084-3.097c0-8.414-2.12-14.737-6.407-18.932c-4.291-4.234-10.043-6.338-17.236-6.338
		s-13.654,2.389-19.383,7.167c-5.699,4.79-9.583,11.875-11.589,21.201H769.172z"/>
	<path fill="#00A5D2" d="M836.303,55.686h32.518l-5.238,22.083c12.133-16.516,25.3-24.756,39.469-24.756
		c5.02,0,10.368,1.1,16.124,3.313l-13.329,25.189c-3.148-1.017-6.542-1.519-10.097-1.519c-5.974,0-12.052,2.021-18.271,6.013
		c-6.159,4.003-11.021,9.322-14.495,16.014c-3.474,6.679-6.921,17.251-10.315,31.761l-8.494,35.681h-34.828L836.303,55.686z"/>
	<path fill="#00A5D2" d="M1054.787,169.463h-36.67l31.079-130.796h-52.199l6.188-26.25h140.202l-6.189,26.25h-51.467
		L1054.787,169.463z"/>
	<path fill="#00A5D2" d="M1127.589,169.463l37.271-157.046h36.563l-37.161,157.046H1127.589z"/>
	<path fill="#00A5D2" d="M1327.157,112.881l36.916,4.939c-7.22,17.631-18.023,31.109-32.41,40.446
		c-14.414,9.295-31.271,13.95-50.624,13.95c-21.771,0-38.79-5.767-51.033-17.344c-12.267-11.564-18.402-28.353-18.402-50.34
		c0-17.834,4.126-34.173,12.324-48.997c8.225-14.806,19.598-26.152,34.174-33.998c14.548-7.872,30.43-11.795,47.586-11.795
		c19.245,0,34.825,4.548,46.713,13.655c11.917,9.107,18.923,21.512,21.013,37.229l-35.071,2.999
		c-1.956-9.149-5.702-15.783-11.239-19.87c-5.537-4.099-12.922-6.147-22.151-6.147c-10.124,0-19.571,2.688-28.338,8.115
		c-8.796,5.444-15.798,13.926-21.063,25.434c-5.268,11.538-7.899,23.046-7.899,34.568c0,12.569,3.42,22.259,10.258,29.127
		c6.841,6.841,15.364,10.276,25.545,10.276c9.472,0,18.16-2.715,26.032-8.145C1317.387,131.543,1323.276,123.534,1327.157,112.881z"
		/>
</g>
<path fill="#00A0DE" d="M1420,245.549c0.19-0.177,0-0.358,0-0.543v-0.418c0-0.185,0.19-0.366,0-0.543v-3.603h-30.689l23.652-21.407
	l-6.082-5.446L1383,235.537v-4.542c0.149-2.017,0.234-4.171,0.234-6.421s-0.085-4.405-0.234-6.421v-13.711h-8v12.125
	c-0.234,2.451-0.367,5.156-0.367,8.008s0.133,5.557,0.367,8.008v3.066l-23.984-21.953L1345,219.19v0.113l27.88,25.486l-27.88,25.5
	v0.113l5.516,5.039h1L1375,253.966v3.103c-0.232,2.442-0.363,5.135-0.363,7.974s0.131,5.532,0.363,7.974v11.425h3.028
	c0.245,0.242,0.498,0,0.757,0h0.297c0.259,0,0.512,0.242,0.757,0H1383v-13.023c0.147-2.003,0.23-4.142,0.23-6.375
	s-0.083-4.372-0.23-6.375v-10.227h7.66c2.492,0.181,5.21,0.281,8.059,0.281s5.566-0.101,8.059-0.281H1420V245.549z"/>
<g>
	<polygon fill="none" points="1382.368,248.491 1381.936,248.124 1382.476,248.763 	"/>
	<polygon fill="#00A0DE" points="1383.101,249.202 1383.324,249.766 1424.57,298.52 1424.854,296.88 1448.897,323.643 
		1455.788,318.139 1431.973,292.221 1432.409,292.193 1433.833,292.1 1383.308,249.287 	"/>
	<path fill="#FFFFFF" d="M1480.795,289.045l-0.01-0.004l-99.096-41.662l-0.161,0.263l-0.002-0.002l-0.354,0.214l36.676,90.486
		l0.043-0.244l0.171,0.433l7.058-40.727l23.597,26.267l0.132,0.147l7.551-6.031l-23.527-25.604l47.855-3.135l0.032-0.193
		L1480.795,289.045L1480.795,289.045z M1382.368,248.491l0.108,0.272l-0.541-0.639L1382.368,248.491z M1417.687,336.828
		l-35.634-87.917l42.275,49.97L1417.687,336.828z M1432.409,292.193l-0.437,0.028l23.815,25.918l-6.891,5.503l-24.042-26.763
		l-0.284,1.64l-41.246-48.754l-0.224-0.564l0.208,0.085l50.525,42.813L1432.409,292.193z M1434.151,291.82l-51.367-43.525
		l97.021,40.789L1434.151,291.82z"/>
	<polygon fill="#00A5D2" points="1434.151,291.82 1479.805,289.083 1382.784,248.294 	"/>
	<polygon fill="#5ABAD7" points="1417.687,336.828 1424.328,298.882 1382.053,248.912 	"/>
</g>
<g enable-background="new    ">
	<path fill="#B2B2B2" d="M10.51,351.442v-72.829h25.76c6.458,0,11.182,0.64,14.115,1.97c2.93,1.289,5.292,3.624,7.056,6.96
		c1.737,3.339,2.634,7.167,2.634,11.469c0,5.471-1.357,9.989-4.019,13.559c-2.661,3.555-6.649,5.794-11.998,6.718
		c2.661,1.875,4.832,3.911,6.568,6.108c1.737,2.225,4.019,6.174,6.979,11.833l7.382,14.211H50.358l-8.851-15.837
		c-3.121-5.66-5.265-9.256-6.461-10.709c-1.139-1.492-2.361-2.484-3.665-3.025c-1.301-0.544-3.364-0.843-6.162-0.843h-2.47v30.416
		H10.51z M22.75,309.396h9.041c5.89,0,9.526-0.284,11.021-0.87c1.438-0.595,2.577-1.642,3.421-3.094
		c0.813-1.465,1.22-3.283,1.22-5.469c0-2.442-0.541-4.425-1.63-5.932c-1.085-1.507-2.604-2.455-4.586-2.849
		c-1.005-0.177-3.992-0.257-8.931-0.257H22.75V309.396z"/>
	<path fill="#B2B2B2" d="M96.963,334.654l11.565,2.335c-1.492,5.104-3.854,8.996-7.059,11.657c-3.202,2.661-7.22,3.991-12.052,3.991
		c-7.627,0-13.271-3.014-16.938-8.984c-2.876-4.805-4.344-10.844-4.344-18.175c0-8.754,1.901-15.607,5.701-20.561
		c3.8-4.954,8.605-7.438,14.441-7.438c6.515,0,11.672,2.592,15.472,7.776c3.747,5.199,5.564,13.125,5.403,23.82H80.053
		c0.054,4.153,1.005,7.37,2.796,9.678c1.791,2.32,4.045,3.447,6.706,3.447c1.818,0,3.337-0.583,4.586-1.791
		C95.364,339.229,96.312,337.3,96.963,334.654z M97.615,320.551c-0.107-4.042-0.951-7.125-2.604-9.214
		c-1.656-2.117-3.665-3.175-6.054-3.175c-2.523,0-4.617,1.112-6.27,3.336c-1.656,2.213-2.473,5.227-2.443,9.053H97.615z"/>
	<path fill="#B2B2B2" d="M156.9,314.281l-11.457,2.484c-0.38-2.756-1.247-4.819-2.631-6.189c-1.357-1.411-3.121-2.117-5.322-2.117
		c-2.876,0-5.184,1.208-6.921,3.597c-1.71,2.401-2.581,6.419-2.581,12.064c0,6.27,0.87,10.683,2.607,13.26
		c1.765,2.607,4.1,3.869,7.06,3.869c2.197,0,4.015-0.721,5.426-2.251c1.414-1.495,2.389-4.087,2.96-7.765l11.427,2.335
		c-1.193,6.296-3.447,11.032-6.814,14.237c-3.364,3.229-7.869,4.832-13.517,4.832c-6.434,0-11.564-2.416-15.365-7.316
		c-3.827-4.858-5.725-11.592-5.725-20.208c0-8.715,1.925-15.499,5.725-20.333c3.857-4.871,9.042-7.301,15.556-7.301
		c5.373,0,9.609,1.399,12.758,4.153C153.235,304.4,155.516,308.622,156.9,314.281z"/>
	<path fill="#B2B2B2" d="M174.379,314.771l-10.557-2.281c1.192-5.088,3.229-8.876,6.108-11.334c2.93-2.428,7.22-3.677,12.919-3.677
		c5.158,0,9.039,0.732,11.565,2.228c2.55,1.45,4.314,3.336,5.373,5.618c1.032,2.254,1.522,6.407,1.522,12.5l-0.108,16.286
		c0,4.628,0.188,8.063,0.568,10.261c0.353,2.2,1.059,4.559,2.063,7.071h-11.481c-0.299-0.936-0.651-2.278-1.112-4.099
		c-0.191-0.84-0.326-1.384-0.41-1.668c-1.979,2.32-4.099,4.072-6.377,5.227c-2.254,1.181-4.67,1.737-7.22,1.737
		c-4.533,0-8.091-1.468-10.695-4.425c-2.607-2.96-3.884-6.679-3.884-11.185c0-2.972,0.571-5.633,1.764-7.965
		c1.169-2.335,2.825-4.114,4.969-5.375c2.144-1.235,5.211-2.309,9.23-3.244c5.429-1.235,9.203-2.362,11.319-3.42v-1.384
		c0-2.7-0.571-4.613-1.656-5.768c-1.112-1.127-3.175-1.71-6.243-1.71c-2.09,0-3.692,0.487-4.858,1.48
		C176.035,310.604,175.088,312.326,174.379,314.771z M189.935,326.103c-1.522,0.61-3.854,1.304-7.086,2.132
		c-3.229,0.84-5.346,1.642-6.324,2.455c-1.521,1.277-2.281,2.906-2.281,4.915c0,1.953,0.599,3.651,1.818,5.062
		c1.196,1.426,2.769,2.132,4.643,2.132c2.09,0,4.099-0.816,5.998-2.485c1.411-1.234,2.335-2.795,2.769-4.616
		c0.299-1.193,0.463-3.447,0.463-6.799V326.103z"/>
	<path fill="#B2B2B2" d="M241.671,351.442v-7.899c-1.6,2.811-3.719,5.023-6.296,6.68c-2.634,1.6-5.349,2.416-8.252,2.416
		c-2.933,0-5.591-0.774-7.926-2.335c-2.335-1.549-4.045-3.731-5.104-6.557c-1.031-2.822-1.546-6.718-1.546-11.672v-33.387h11.589
		v24.241c0,7.424,0.218,11.957,0.652,13.64c0.407,1.683,1.223,2.999,2.335,3.977c1.139,0.963,2.55,1.48,4.317,1.48
		c1.979,0,3.743-0.667,5.319-1.967c1.576-1.318,2.634-2.933,3.229-4.888c0.571-1.94,0.843-6.665,0.843-14.223v-22.259h11.646v52.755
		H241.671z"/>
	<path fill="#B2B2B2" d="M304.729,351.442h-10.778v-7.75c-1.791,3.025-3.908,5.268-6.323,6.745c-2.443,1.453-4.913,2.2-7.382,2.2
		c-5.05,0-9.367-2.442-12.949-7.331c-3.612-4.87-5.402-11.711-5.402-20.453c0-8.931,1.737-15.742,5.238-20.385
		c3.504-4.655,7.926-6.99,13.275-6.99c4.912,0,9.149,2.458,12.73,7.37v-26.236h11.592V351.442z M273.758,323.917
		c0,5.648,0.652,9.717,1.926,12.229c1.874,3.65,4.505,5.471,7.872,5.471c2.661,0,4.942-1.384,6.813-4.099
		c1.872-2.742,2.796-6.813,2.796-12.255c0-6.054-0.895-10.425-2.688-13.086c-1.845-2.658-4.153-4.015-7.002-4.015
		c-2.769,0-5.076,1.315-6.948,3.95C274.679,314.757,273.758,318.691,273.758,323.917z"/>
	<path fill="#B2B2B2" d="M324.896,314.771l-10.53-2.281c1.166-5.088,3.202-8.876,6.108-11.334c2.903-2.428,7.194-3.677,12.893-3.677
		c5.184,0,9.038,0.732,11.564,2.228c2.55,1.45,4.314,3.336,5.373,5.618c1.031,2.254,1.548,6.407,1.548,12.5l-0.134,16.286
		c0,4.628,0.188,8.063,0.568,10.261c0.353,2.2,1.058,4.559,2.09,7.071h-11.508c-0.299-0.936-0.679-2.278-1.112-4.099
		c-0.191-0.84-0.326-1.384-0.41-1.668c-1.979,2.32-4.126,4.072-6.377,5.227c-2.254,1.181-4.644,1.737-7.221,1.737
		c-4.532,0-8.09-1.468-10.694-4.425c-2.607-2.96-3.911-6.679-3.911-11.185c0-2.972,0.598-5.633,1.791-7.965
		c1.196-2.335,2.853-4.114,4.969-5.375c2.144-1.235,5.211-2.309,9.229-3.244c5.43-1.235,9.203-2.362,11.32-3.42v-1.384
		c0-2.7-0.571-4.613-1.656-5.768c-1.112-1.127-3.202-1.71-6.27-1.71c-2.036,0-3.666,0.487-4.832,1.48
		C326.552,310.604,325.631,312.326,324.896,314.771z M340.452,326.103c-1.495,0.61-3.854,1.304-7.086,2.132
		c-3.229,0.84-5.319,1.642-6.297,2.455c-1.549,1.277-2.308,2.906-2.308,4.915c0,1.953,0.598,3.651,1.818,5.062
		c1.223,1.426,2.769,2.132,4.644,2.132c2.063,0,4.072-0.816,5.997-2.485c1.411-1.234,2.309-2.795,2.769-4.616
		c0.272-1.193,0.464-3.447,0.464-6.799V326.103z"/>
	<path fill="#B2B2B2" d="M401.582,314.281l-11.457,2.484c-0.38-2.756-1.273-4.819-2.631-6.189c-1.357-1.411-3.122-2.117-5.295-2.117
		c-2.903,0-5.212,1.208-6.949,3.597c-1.737,2.401-2.577,6.419-2.577,12.064c0,6.27,0.894,10.683,2.631,13.26
		c1.737,2.607,4.099,3.869,7.032,3.869c2.224,0,4.015-0.721,5.426-2.251c1.385-1.495,2.389-4.087,2.987-7.765l11.4,2.335
		c-1.193,6.296-3.447,11.032-6.814,14.237c-3.363,3.229-7.869,4.832-13.517,4.832c-6.435,0-11.565-2.416-15.365-7.316
		c-3.827-4.858-5.725-11.592-5.725-20.208c0-8.715,1.925-15.499,5.752-20.333c3.83-4.871,9.014-7.301,15.556-7.301
		c5.319,0,9.583,1.399,12.731,4.153C397.916,304.4,400.197,308.622,401.582,314.281z"/>
	<path fill="#B2B2B2" d="M410.375,291.508v-12.895h11.618v12.895H410.375z M410.375,351.442v-52.755h11.618v52.755H410.375z"/>
	<path fill="#B2B2B2" d="M431.223,324.324c0-4.64,0.951-9.119,2.822-13.475c1.928-4.33,4.616-7.642,8.118-9.936
		c3.474-2.308,7.382-3.435,11.672-3.435c6.623,0,12.079,2.592,16.34,7.776c4.236,5.199,6.353,11.756,6.353,19.682
		c0,7.965-2.147,14.59-6.434,19.829s-9.69,7.872-16.178,7.872c-4.045,0-7.872-1.085-11.538-3.271
		c-3.636-2.186-6.404-5.402-8.333-9.609C432.174,335.536,431.223,330.391,431.223,324.324z M443.11,325.057
		c0,5.253,1.062,9.229,3.095,12.025c2.093,2.784,4.643,4.168,7.657,4.168c3.04,0,5.591-1.384,7.627-4.168
		c2.063-2.795,3.094-6.826,3.094-12.118c0-5.172-1.032-9.149-3.094-11.917c-2.036-2.795-4.587-4.195-7.627-4.195
		c-3.014,0-5.564,1.399-7.657,4.195C444.172,315.815,443.11,319.818,443.11,325.057z M447.999,292.226l5.698-14.86h13.03
		l-11.374,14.86H447.999z"/>
	<path fill="#B2B2B2" d="M525.549,351.442h-11.615v-26.926c0-5.687-0.245-9.391-0.735-11.047c-0.515-1.671-1.328-2.972-2.416-3.923
		c-1.112-0.909-2.47-1.384-4.042-1.384c-2.009,0-3.83,0.679-5.43,1.994c-1.576,1.331-2.688,3.083-3.286,5.265
		c-0.567,2.186-0.894,6.219-0.894,12.121v23.901h-11.592v-52.755h10.775v7.75c3.827-5.959,8.659-8.958,14.468-8.958
		c2.58,0,4.915,0.556,7.032,1.656c2.117,1.112,3.719,2.539,4.832,4.261c1.085,1.71,1.845,3.666,2.281,5.851
		c0.407,2.197,0.622,5.333,0.622,9.418V351.442z"/>
	<path fill="#B2B2B2" d="M555.354,298.687h12.351l10.506,37.459l10.231-37.459h12.052l-15.499,50.761l-2.769,9.214
		c-1.032,3.068-1.979,5.418-2.903,7.044c-0.951,1.644-2.009,2.945-3.202,3.949c-1.196,1.032-2.661,1.806-4.425,2.377
		c-1.737,0.556-3.72,0.84-5.947,0.84c-2.197,0-4.395-0.284-6.568-0.84l-1.005-10.955c1.821,0.421,3.447,0.652,4.916,0.652
		c2.685,0,4.694-0.951,5.971-2.837c1.303-1.925,2.281-4.341,2.987-7.301L555.354,298.687z"/>
	<path fill="#B2B2B2" d="M631.523,351.442v-72.829h19.652c7.438,0,12.297,0.368,14.548,1.085c3.474,1.101,6.38,3.462,8.715,7.113
		c2.359,3.678,3.528,8.417,3.528,14.211c0,4.452-0.679,8.225-2.01,11.25c-1.357,3.068-3.067,5.457-5.184,7.194
		c-2.063,1.737-4.18,2.918-6.324,3.462c-2.933,0.679-7.14,1.043-12.704,1.043h-7.956v27.471H631.523z M643.791,290.925v20.657h6.679
		c4.832,0,8.061-0.368,9.69-1.127c1.603-0.759,2.876-1.967,3.8-3.57c0.951-1.641,1.411-3.528,1.411-5.671
		c0-2.649-0.679-4.832-1.952-6.572c-1.304-1.722-2.933-2.781-4.915-3.214c-1.492-0.341-4.398-0.502-8.82-0.502H643.791z"/>
	<path fill="#B2B2B2" d="M696.615,314.771l-10.53-2.281c1.166-5.088,3.202-8.876,6.078-11.334c2.906-2.428,7.221-3.677,12.922-3.677
		c5.185,0,9.038,0.732,11.562,2.228c2.554,1.45,4.345,3.336,5.349,5.618c1.058,2.254,1.576,6.407,1.576,12.5l-0.138,16.286
		c0,4.628,0.191,8.063,0.544,10.261c0.38,2.2,1.086,4.559,2.117,7.071h-11.511c-0.296-0.936-0.679-2.278-1.112-4.099
		c-0.188-0.84-0.326-1.384-0.407-1.668c-2.009,2.32-4.099,4.072-6.35,5.227c-2.281,1.181-4.697,1.737-7.25,1.737
		c-4.506,0-8.087-1.468-10.695-4.425c-2.604-2.96-3.907-6.679-3.907-11.185c0-2.972,0.598-5.633,1.764-7.965
		c1.196-2.335,2.876-4.114,4.996-5.375c2.144-1.235,5.211-2.309,9.256-3.244c5.426-1.235,9.173-2.362,11.263-3.42v-1.384
		c0-2.7-0.541-4.613-1.653-5.768c-1.088-1.127-3.178-1.71-6.246-1.71c-2.063,0-3.663,0.487-4.832,1.48
		C698.271,310.604,697.348,312.326,696.615,314.771z M712.141,326.103c-1.465,0.61-3.827,1.304-7.056,2.132
		c-3.232,0.84-5.322,1.642-6.326,2.455c-1.519,1.277-2.278,2.906-2.278,4.915c0,1.953,0.595,3.651,1.818,5.062
		c1.223,1.426,2.769,2.132,4.643,2.132c2.09,0,4.096-0.816,5.971-2.485c1.411-1.234,2.335-2.795,2.795-4.616
		c0.299-1.193,0.434-3.447,0.434-6.799V326.103z"/>
	<path fill="#B2B2B2" d="M733.94,354.916l13.272,1.956c0.218,1.859,0.735,3.121,1.521,3.827c1.112,1.005,2.85,1.48,5.211,1.48
		c3.041,0,5.319-0.544,6.814-1.656c1.031-0.706,1.791-1.898,2.308-3.516c0.379-1.139,0.541-3.298,0.541-6.392v-7.723
		c-3.474,5.729-7.872,8.551-13.137,8.551c-5.917,0-10.56-2.972-14.007-8.997c-2.715-4.724-4.045-10.629-4.045-17.658
		c0-8.865,1.764-15.622,5.295-20.304c3.555-4.67,7.953-7.005,13.218-7.005c5.429,0,9.908,2.891,13.436,8.604v-7.396h10.859v47.341
		c0,6.231-0.434,10.898-1.277,13.965c-0.84,3.083-2.063,5.499-3.582,7.235c-1.549,1.776-3.612,3.148-6.189,4.138
		c-2.58,1.004-5.836,1.507-9.773,1.507c-7.463,0-12.73-1.546-15.825-4.602c-3.121-3.08-4.694-6.948-4.694-11.646
		C733.886,356.166,733.886,355.595,733.94,354.916z M744.309,323.971c0,5.606,0.924,9.69,2.715,12.285
		c1.818,2.619,4.019,3.908,6.676,3.908c2.852,0,5.241-1.315,7.194-4.003c1.955-2.676,2.933-6.595,2.933-11.836
		c0-5.483-0.924-9.541-2.795-12.202c-1.902-2.631-4.263-3.961-7.113-3.961c-2.795,0-5.077,1.315-6.895,3.896
		C745.232,314.676,744.309,318.638,744.309,323.971z"/>
	<path fill="#B2B2B2" d="M784.05,324.324c0-4.64,0.947-9.119,2.849-13.475c1.899-4.33,4.587-7.642,8.088-9.936
		c3.477-2.308,7.385-3.435,11.672-3.435c6.652,0,12.082,2.592,16.343,7.776c4.233,5.199,6.351,11.756,6.351,19.682
		c0,7.965-2.144,14.59-6.432,19.829c-4.29,5.238-9.693,7.872-16.178,7.872c-4.045,0-7.872-1.085-11.538-3.271
		c-3.639-2.186-6.407-5.402-8.306-9.609C784.997,335.536,784.05,330.391,784.05,324.324z M795.937,325.057
		c0,5.253,1.058,9.229,3.094,12.025c2.09,2.784,4.616,4.168,7.654,4.168c3.041,0,5.594-1.384,7.63-4.168
		c2.063-2.795,3.095-6.826,3.095-12.118c0-5.172-1.032-9.149-3.095-11.917c-2.036-2.795-4.589-4.195-7.63-4.195
		c-3.038,0-5.564,1.399-7.654,4.195C796.995,315.815,795.937,319.818,795.937,325.057z"/>
	<path fill="#B2B2B2" d="M913.554,351.442h-13.299l-5.295-16.531h-24.238l-4.996,16.531h-13.003l23.644-72.829h12.922
		L913.554,351.442z M891.025,322.629l-8.359-27.049l-8.171,27.049H891.025z"/>
	<path fill="#B2B2B2" d="M948.87,351.442v-7.899c-1.6,2.811-3.719,5.023-6.324,6.68c-2.607,1.6-5.349,2.416-8.252,2.416
		c-2.933,0-5.563-0.774-7.926-2.335c-2.362-1.549-4.045-3.731-5.077-6.557c-1.058-2.822-1.576-6.718-1.576-11.672v-33.387h11.618
		v24.241c0,7.424,0.219,11.957,0.625,13.64c0.434,1.683,1.223,2.999,2.335,3.977c1.14,0.963,2.577,1.48,4.314,1.48
		c1.982,0,3.773-0.667,5.322-1.967c1.572-1.318,2.661-2.933,3.229-4.888c0.598-1.94,0.87-6.665,0.87-14.223v-22.259h11.619v52.755
		H948.87z"/>
	<path fill="#B2B2B2" d="M991.813,298.687v11.104h-7.926v21.293c0,4.303,0.054,6.814,0.218,7.532
		c0.135,0.706,0.487,1.292,1.032,1.767c0.541,0.446,1.166,0.691,1.979,0.691c1.062,0,2.607-0.449,4.644-1.357l0.978,10.817
		c-2.688,1.412-5.755,2.105-9.149,2.105c-2.117,0-3.988-0.407-5.671-1.262c-1.684-0.843-2.906-1.928-3.692-3.271
		c-0.787-1.357-1.331-3.178-1.63-5.456c-0.242-1.603-0.38-4.9-0.38-9.828v-23.031h-5.346v-11.104h5.346v-10.492l11.673-8.156v18.648
		H991.813z"/>
	<path fill="#B2B2B2" d="M997.188,324.324c0-4.64,0.921-9.119,2.849-13.475c1.901-4.33,4.586-7.642,8.09-9.936
		c3.474-2.308,7.355-3.435,11.672-3.435c6.649,0,12.079,2.592,16.339,7.776c4.207,5.199,6.354,11.756,6.354,19.682
		c0,7.965-2.146,14.59-6.435,19.829c-4.26,5.238-9.663,7.872-16.178,7.872c-4.019,0-7.872-1.085-11.511-3.271
		c-3.636-2.186-6.431-5.402-8.333-9.609C998.109,335.536,997.188,330.391,997.188,324.324z M1009.103,325.057
		c0,5.253,1.005,9.229,3.095,12.025c2.063,2.784,4.589,4.168,7.657,4.168c3.014,0,5.537-1.384,7.6-4.168
		c2.063-2.795,3.095-6.826,3.095-12.118c0-5.172-1.032-9.149-3.095-11.917c-2.063-2.795-4.586-4.195-7.6-4.195
		c-3.068,0-5.594,1.399-7.657,4.195C1010.107,315.815,1009.103,319.818,1009.103,325.057z"/>
	<path fill="#B2B2B2" d="M1050.718,298.687h10.722v7.208c3.8-5.594,8.359-8.417,13.682-8.417c2.795,0,5.238,0.706,7.301,2.078
		c2.063,1.411,3.773,3.501,5.104,6.338c1.898-2.837,3.988-4.927,6.216-6.338c2.224-1.373,4.613-2.078,7.167-2.078
		c3.229,0,5.944,0.786,8.168,2.377c2.255,1.573,3.911,3.866,4.996,6.921c0.813,2.251,1.22,5.917,1.22,10.94v33.725h-11.642v-30.17
		c0-5.226-0.382-8.578-1.169-10.126c-1.085-1.979-2.742-2.984-4.966-2.984c-1.629,0-3.175,0.61-4.589,1.776
		c-1.438,1.208-2.469,2.96-3.094,5.268c-0.652,2.278-0.948,5.932-0.948,10.898v25.339h-11.618v-28.92
		c0-5.131-0.218-8.443-0.625-9.936c-0.406-1.48-1.058-2.592-1.928-3.339c-0.867-0.721-2.036-1.085-3.528-1.085
		c-1.791,0-3.421,0.583-4.832,1.749c-1.438,1.169-2.469,2.837-3.094,5.008c-0.598,2.186-0.924,5.81-0.924,10.886v25.638h-11.616
		V298.687z"/>
	<path fill="#B2B2B2" d="M1135.542,314.771l-10.53-2.281c1.166-5.088,3.202-8.876,6.108-11.334
		c2.903-2.428,7.191-3.677,12.893-3.677c5.185,0,9.038,0.732,11.564,2.228c2.55,1.45,4.341,3.336,5.373,5.618
		c1.031,2.254,1.549,6.407,1.549,12.5l-0.138,16.286c0,4.628,0.191,8.063,0.571,10.261c0.353,2.2,1.085,4.559,2.09,7.071h-11.481
		c-0.326-0.936-0.679-2.278-1.142-4.099c-0.188-0.84-0.323-1.384-0.407-1.668c-1.979,2.32-4.099,4.072-6.35,5.227
		c-2.281,1.181-4.67,1.737-7.248,1.737c-4.532,0-8.09-1.468-10.667-4.425c-2.634-2.96-3.911-6.679-3.911-11.185
		c0-2.972,0.571-5.633,1.764-7.965c1.196-2.335,2.853-4.114,4.969-5.375c2.17-1.235,5.238-2.309,9.256-3.244
		c5.403-1.235,9.176-2.362,11.293-3.42v-1.384c0-2.7-0.544-4.613-1.656-5.768c-1.086-1.127-3.202-1.71-6.243-1.71
		c-2.063,0-3.665,0.487-4.858,1.48C1137.199,310.604,1136.278,312.326,1135.542,314.771z M1151.099,326.103
		c-1.495,0.61-3.857,1.304-7.086,2.132c-3.202,0.84-5.319,1.642-6.297,2.455c-1.521,1.277-2.281,2.906-2.281,4.915
		c0,1.953,0.598,3.651,1.818,5.062c1.195,1.426,2.741,2.132,4.616,2.132c2.09,0,4.099-0.816,5.997-2.485
		c1.411-1.234,2.335-2.795,2.769-4.616c0.299-1.193,0.464-3.447,0.464-6.799V326.103z M1138.529,292.226l5.701-14.86h13.003
		l-11.346,14.86H1138.529z"/>
	<path fill="#B2B2B2" d="M1194.068,298.687v11.104h-7.926v21.293c0,4.303,0.08,6.814,0.242,7.532
		c0.165,0.706,0.463,1.292,1.004,1.767c0.544,0.446,1.196,0.691,1.982,0.691c1.085,0,2.634-0.449,4.67-1.357l0.975,10.817
		c-2.685,1.412-5.752,2.105-9.146,2.105c-2.117,0-3.991-0.407-5.675-1.262c-1.683-0.843-2.93-1.928-3.689-3.271
		c-0.789-1.357-1.357-3.178-1.656-5.456c-0.245-1.603-0.38-4.9-0.38-9.828v-23.031h-5.322v-11.104h5.322v-10.492l11.673-8.156
		v18.648H1194.068z"/>
	<path fill="#B2B2B2" d="M1202.129,291.508v-12.895h11.618v12.895H1202.129z M1202.129,351.442v-52.755h11.618v52.755H1202.129z"/>
	<path fill="#B2B2B2" d="M1263.964,314.281l-11.481,2.484c-0.38-2.756-1.25-4.819-2.634-6.189c-1.357-1.411-3.122-2.117-5.292-2.117
		c-2.879,0-5.214,1.208-6.951,3.597c-1.681,2.401-2.551,6.419-2.551,12.064c0,6.27,0.87,10.683,2.607,13.26
		c1.764,2.607,4.096,3.869,7.056,3.869c2.228,0,4.019-0.721,5.43-2.251c1.411-1.495,2.389-4.087,2.96-7.765l11.4,2.335
		c-1.169,6.296-3.421,11.032-6.814,14.237c-3.34,3.229-7.873,4.832-13.517,4.832c-6.407,0-11.538-2.416-15.365-7.316
		c-3.8-4.858-5.729-11.592-5.729-20.208c0-8.715,1.928-15.499,5.755-20.333c3.854-4.871,9.012-7.301,15.553-7.301
		c5.349,0,9.583,1.399,12.757,4.153C1260.272,304.4,1262.553,308.622,1263.964,314.281z"/>
	<path fill="#B2B2B2" d="M1270.072,324.324c0-4.64,0.924-9.119,2.85-13.475c1.875-4.33,4.589-7.642,8.063-9.936
		c3.501-2.308,7.409-3.435,11.699-3.435c6.649,0,12.079,2.592,16.313,7.776c4.233,5.199,6.38,11.756,6.38,19.682
		c0,7.965-2.147,14.59-6.434,19.829s-9.69,7.872-16.178,7.872c-4.019,0-7.873-1.085-11.511-3.271
		c-3.663-2.186-6.458-5.402-8.333-9.609C1270.997,335.536,1270.072,330.391,1270.072,324.324z M1281.96,325.057
		c0,5.253,1.032,9.229,3.095,12.025c2.063,2.784,4.616,4.168,7.657,4.168c3.04,0,5.591-1.384,7.627-4.168
		c2.063-2.795,3.094-6.826,3.094-12.118c0-5.172-1.032-9.149-3.094-11.917c-2.036-2.795-4.587-4.195-7.627-4.195
		c-3.041,0-5.594,1.399-7.657,4.195C1282.992,315.815,1281.96,319.818,1281.96,325.057z"/>
</g>
</svg>
